<svg xmlns="http://www.w3.org/2000/svg" width="150" height="93" viewBox="0 0 150 93" fill="none"><path d="M41.7765 53.1357H53L52.9221 44.5714H42.7897L44.3485 32H35.6191L34.0603 44.5714H22.6029L24.1618 32H15.4324L13.8735 44.5714H2.65V53.1357H12.8603L11.2235 65.8643H0V74.4286H10.2103L8.65147 87H17.3809L18.9397 74.4286H30.3971L28.8382 87H37.6456L39.2044 74.4286H50.35V65.8643H40.2176L41.7765 53.1357ZM19.9529 65.8643L21.5897 53.1357H33.0471L31.4103 65.8643H19.9529Z" fill="white"></path><path d="M104 46.208C104 61.1413 101.141 72.6187 95.424 80.64C89.792 88.576 81.984 92.544 72 92.544C62.016 92.544 54.1653 88.576 48.448 80.64C42.816 72.6187 40 61.1413 40 46.208C40 38.784 40.7253 32.2133 42.176 26.496C43.712 20.7787 45.888 15.9573 48.704 12.032C51.52 8.10667 54.8907 5.12 58.816 3.072C62.7413 1.024 67.136 0 72 0C81.984 0 89.792 4.01067 95.424 12.032C101.141 19.968 104 31.36 104 46.208ZM84.544 46.208C84.544 41.7707 84.3307 37.76 83.904 34.176C83.4773 30.5067 82.7947 27.3493 81.856 24.704C80.9173 22.0587 79.6373 20.0107 78.016 18.56C76.3947 17.1093 74.3893 16.384 72 16.384C69.6107 16.384 67.6053 17.1093 65.984 18.56C64.448 20.0107 63.168 22.0587 62.144 24.704C61.2053 27.3493 60.5227 30.5067 60.096 34.176C59.6693 37.76 59.456 41.7707 59.456 46.208C59.456 50.6453 59.6693 54.6987 60.096 58.368C60.5227 62.0373 61.2053 65.1947 62.144 67.84C63.168 70.4853 64.448 72.5333 65.984 73.984C67.6053 75.4347 69.6107 76.16 72 76.16C74.3893 76.16 76.3947 75.4347 78.016 73.984C79.6373 72.5333 80.9173 70.4853 81.856 67.84C82.7947 65.1947 83.4773 62.0373 83.904 58.368C84.3307 54.6987 84.544 50.6453 84.544 46.208Z" fill="url(#paint0_linear_57_321)"></path><path d="M107.118 20.48C109.593 19.456 112.153 18.304 114.798 17.024C117.529 15.6587 120.174 14.208 122.734 12.672C125.294 11.0507 127.726 9.38667 130.03 7.68C132.419 5.888 134.553 4.01067 136.43 2.048H149.742V90.752H130.67V26.88C128.11 28.5867 125.251 30.1653 122.094 31.616C118.937 32.9813 115.865 34.176 112.878 35.2L107.118 20.48Z" fill="url(#paint1_linear_57_321)"></path><defs><linearGradient id="paint0_linear_57_321" x1="40" y1="45.9365" x2="150.028" y2="45.9365" gradientUnits="userSpaceOnUse"><stop offset="0.578125" stop-color="#EF3636"></stop><stop offset="1" stop-color="#EF3636" stop-opacity="0"></stop></linearGradient><linearGradient id="paint1_linear_57_321" x1="40" y1="45.9365" x2="150.028" y2="45.9365" gradientUnits="userSpaceOnUse"><stop offset="0.578125" stop-color="#EF3636"></stop><stop offset="1" stop-color="#EF3636" stop-opacity="0"></stop></linearGradient></defs></svg>