<svg xmlns="http://www.w3.org/2000/svg" width="175" height="93" viewBox="0 0 175 93" fill="none"><path d="M41.7765 53.1357H53L52.9221 44.5714H42.7897L44.3485 32H35.6191L34.0603 44.5714H22.6029L24.1618 32H15.4324L13.8735 44.5714H2.65V53.1357H12.8603L11.2235 65.8643H0V74.4286H10.2103L8.65147 87H17.3809L18.9397 74.4286H30.3971L28.8382 87H37.6456L39.2044 74.4286H50.35V65.8643H40.2176L41.7765 53.1357ZM19.9529 65.8643L21.5897 53.1357H33.0471L31.4103 65.8643H19.9529Z" fill="white"></path><path d="M104.352 46.4561C104.352 61.3894 101.493 72.8667 95.7761 80.8881C90.1441 88.8241 82.3361 92.7921 72.3521 92.7921C62.368 92.7921 54.5174 88.8241 48.8001 80.8881C43.1681 72.8667 40.3521 61.3894 40.3521 46.4561C40.3521 39.0321 41.0774 32.4614 42.5281 26.744C44.0641 21.0267 46.2401 16.2054 49.0561 12.2801C51.8721 8.35472 55.2427 5.36805 59.1681 3.32005C63.0934 1.27205 67.4881 0.248047 72.3521 0.248047C82.3361 0.248047 90.1441 4.25872 95.7761 12.2801C101.493 20.2161 104.352 31.6081 104.352 46.4561ZM84.8961 46.4561C84.8961 42.0187 84.6827 38.0081 84.2561 34.424C83.8294 30.7547 83.1467 27.5974 82.2081 24.952C81.2694 22.3067 79.9894 20.2587 78.3681 18.8081C76.7467 17.3574 74.7414 16.632 72.3521 16.632C69.9627 16.632 67.9574 17.3574 66.3361 18.8081C64.8001 20.2587 63.5201 22.3067 62.4961 24.952C61.5574 27.5974 60.8747 30.7547 60.4481 34.424C60.0214 38.0081 59.8081 42.0187 59.8081 46.4561C59.8081 50.8934 60.0214 54.9467 60.4481 58.6161C60.8747 62.2854 61.5574 65.4427 62.4961 68.0881C63.5201 70.7334 64.8001 72.7814 66.3361 74.2321C67.9574 75.6827 69.9627 76.4081 72.3521 76.4081C74.7414 76.4081 76.7467 75.6827 78.3681 74.2321C79.9894 72.7814 81.2694 70.7334 82.2081 68.0881C83.1467 65.4427 83.8294 62.2854 84.2561 58.6161C84.6827 54.9467 84.8961 50.8934 84.8961 46.4561Z" fill="url(#paint0_linear_57_322)"></path><path d="M172.238 25.592C172.238 28.8347 171.598 31.9494 170.318 34.9361C169.038 37.9227 167.374 40.8241 165.326 43.6401C163.278 46.3707 160.974 49.016 158.414 51.576C155.854 54.1361 153.337 56.5681 150.862 58.8721C149.582 60.0667 148.174 61.4321 146.638 62.9681C145.187 64.4187 143.779 65.912 142.414 67.4481C141.049 68.9841 139.811 70.4347 138.702 71.8C137.678 73.08 137.038 74.1467 136.782 75.0001H174.926V91.0001H115.79C115.619 90.0614 115.534 88.8667 115.534 87.4161C115.534 85.9654 115.534 84.9414 115.534 84.3441C115.534 80.2481 116.174 76.4934 117.454 73.0801C118.819 69.6667 120.569 66.5094 122.702 63.6081C124.835 60.6214 127.225 57.8481 129.87 55.2881C132.601 52.7281 135.289 50.1681 137.934 47.6081C139.982 45.6454 141.902 43.8107 143.694 42.104C145.486 40.312 147.065 38.6054 148.43 36.9841C149.795 35.2774 150.862 33.6134 151.63 31.9921C152.398 30.2854 152.782 28.5787 152.782 26.872C152.782 23.1174 151.715 20.4721 149.582 18.9361C147.449 17.4 144.803 16.632 141.646 16.632C139.342 16.632 137.166 17.0161 135.118 17.784C133.155 18.4667 131.321 19.3201 129.614 20.344C127.993 21.2827 126.585 22.2641 125.39 23.288C124.195 24.2267 123.299 24.9947 122.702 25.592L113.23 12.2801C116.985 8.78138 121.337 5.92272 126.286 3.70405C131.321 1.40005 136.697 0.248047 142.414 0.248047C147.619 0.248047 152.099 0.84538 155.854 2.04005C159.609 3.23471 162.681 4.94138 165.07 7.16005C167.545 9.29338 169.337 11.9387 170.446 15.096C171.641 18.168 172.238 21.6667 172.238 25.592Z" fill="url(#paint1_linear_57_322)"></path><defs><linearGradient id="paint0_linear_57_322" x1="40.352" y1="46.1845" x2="175.277" y2="46.1845" gradientUnits="userSpaceOnUse"><stop offset="0.578125" stop-color="#EF3636"></stop><stop offset="1" stop-color="#EF3636" stop-opacity="0"></stop></linearGradient><linearGradient id="paint1_linear_57_322" x1="40.352" y1="46.1845" x2="175.277" y2="46.1845" gradientUnits="userSpaceOnUse"><stop offset="0.578125" stop-color="#EF3636"></stop><stop offset="1" stop-color="#EF3636" stop-opacity="0"></stop></linearGradient></defs></svg>