<svg xmlns="http://www.w3.org/2000/svg" width="174" height="93" viewBox="0 0 174 93" fill="none"><path d="M41.7765 53.1357H53L52.9221 44.5714H42.7897L44.3485 32H35.6191L34.0603 44.5714H22.6029L24.1618 32H15.4324L13.8735 44.5714H2.65V53.1357H12.8603L11.2235 65.8643H0V74.4286H10.2103L8.65147 87H17.3809L18.9397 74.4286H30.3971L28.8382 87H37.6456L39.2044 74.4286H50.35V65.8643H40.2176L41.7765 53.1357ZM19.9529 65.8643L21.5897 53.1357H33.0471L31.4103 65.8643H19.9529Z" fill="white"></path><path d="M104 46.208C104 61.1413 101.141 72.6187 95.424 80.64C89.792 88.576 81.984 92.544 72 92.544C62.016 92.544 54.1653 88.576 48.448 80.64C42.816 72.6187 40 61.1413 40 46.208C40 38.784 40.7253 32.2133 42.176 26.496C43.712 20.7787 45.888 15.9573 48.704 12.032C51.52 8.10667 54.8907 5.12 58.816 3.072C62.7413 1.024 67.136 0 72 0C81.984 0 89.792 4.01067 95.424 12.032C101.141 19.968 104 31.36 104 46.208ZM84.544 46.208C84.544 41.7707 84.3307 37.76 83.904 34.176C83.4773 30.5067 82.7947 27.3493 81.856 24.704C80.9173 22.0587 79.6373 20.0107 78.016 18.56C76.3947 17.1093 74.3893 16.384 72 16.384C69.6107 16.384 67.6053 17.1093 65.984 18.56C64.448 20.0107 63.168 22.0587 62.144 24.704C61.2053 27.3493 60.5227 30.5067 60.096 34.176C59.6693 37.76 59.456 41.7707 59.456 46.208C59.456 50.6453 59.6693 54.6987 60.096 58.368C60.5227 62.0373 61.2053 65.1947 62.144 67.84C63.168 70.4853 64.448 72.5333 65.984 73.984C67.6053 75.4347 69.6107 76.16 72 76.16C74.3893 76.16 76.3947 75.4347 78.016 73.984C79.6373 72.5333 80.9173 70.4853 81.856 67.84C82.7947 65.1947 83.4773 62.0373 83.904 58.368C84.3307 54.6987 84.544 50.6453 84.544 46.208Z" fill="url(#paint0_linear_57_323)"></path><path d="M137.582 92.672C135.278 92.672 132.846 92.5013 130.286 92.16C127.726 91.904 125.251 91.52 122.862 91.008C120.473 90.496 118.297 89.9413 116.334 89.344C114.371 88.7467 112.835 88.192 111.726 87.68L115.438 71.808C117.657 72.7467 120.473 73.7707 123.886 74.88C127.385 75.904 131.694 76.416 136.814 76.416C142.702 76.416 147.011 75.3067 149.742 73.088C152.473 70.8693 153.838 67.8827 153.838 64.128C153.838 61.824 153.326 59.904 152.302 58.368C151.363 56.7467 150.041 55.4667 148.334 54.528C146.627 53.504 144.579 52.8213 142.19 52.48C139.886 52.0533 137.411 51.84 134.766 51.84H127.342V36.48H135.79C137.667 36.48 139.459 36.3093 141.166 35.968C142.958 35.6267 144.537 35.072 145.902 34.304C147.267 33.4507 148.334 32.3413 149.102 30.976C149.955 29.5253 150.382 27.7333 150.382 25.6C150.382 23.9787 150.041 22.5707 149.358 21.376C148.675 20.1813 147.779 19.2 146.67 18.432C145.646 17.664 144.409 17.1093 142.958 16.768C141.593 16.3413 140.185 16.128 138.734 16.128C135.065 16.128 131.651 16.6827 128.494 17.792C125.422 18.9013 122.606 20.2667 120.046 21.888L113.262 7.936C114.627 7.08267 116.206 6.18667 117.998 5.248C119.875 4.30934 121.923 3.456 124.142 2.688C126.361 1.92 128.707 1.28 131.182 0.768005C133.742 0.256002 136.43 0 139.246 0C144.451 0 148.931 0.640002 152.686 1.92001C156.526 3.11467 159.683 4.864 162.158 7.168C164.633 9.38667 166.467 12.032 167.662 15.104C168.857 18.0907 169.454 21.376 169.454 24.96C169.454 28.4587 168.473 31.872 166.51 35.2C164.547 38.4427 161.902 40.9173 158.574 42.624C163.182 44.5013 166.723 47.3173 169.198 51.072C171.758 54.7413 173.038 59.1787 173.038 64.384C173.038 68.48 172.355 72.2773 170.99 75.776C169.625 79.1893 167.491 82.176 164.59 84.736C161.689 87.2107 157.977 89.1733 153.454 90.624C149.017 91.9893 143.726 92.672 137.582 92.672Z" fill="url(#paint1_linear_57_323)"></path><defs><linearGradient id="paint0_linear_57_323" x1="40" y1="46" x2="173.385" y2="46" gradientUnits="userSpaceOnUse"><stop offset="0.578125" stop-color="#EF3636"></stop><stop offset="1" stop-color="#EF3636" stop-opacity="0"></stop></linearGradient><linearGradient id="paint1_linear_57_323" x1="40" y1="46" x2="173.385" y2="46" gradientUnits="userSpaceOnUse"><stop offset="0.578125" stop-color="#EF3636"></stop><stop offset="1" stop-color="#EF3636" stop-opacity="0"></stop></linearGradient></defs></svg>