<svg xmlns="http://www.w3.org/2000/svg" width="335" height="67" viewBox="0 0 335 67" fill="none"><path fill-rule="evenodd" clip-rule="evenodd" d="M85.0363 9.14425L87.715 11.493C87.715 11.493 82.6284 18.7961 80.6383 21.6259C83.1001 23.8035 92.1211 23.1508 92.3683 22.3988L95.9332 16.9213L99 19.3898L98.2021 5L85.0363 9.14425ZM26.742 23.0485C26.9052 23.1889 27.6691 23.7696 28.4398 24.3387C31.211 26.3857 32.7071 28.2173 33.7204 30.8035C34.344 32.395 34.532 33.4264 34.5356 35.2761C34.5385 36.6892 34.5085 36.954 34.2925 37.426C33.9876 38.0922 33.2007 38.9691 32.6631 39.2418C31.6144 39.7735 29.7134 39.9653 26.972 39.8158C25.7231 39.7476 19.7596 39.7135 12.4818 39.7329L0.113922 39.7657L0.0329898 48.5021C-0.0201294 54.2359 -0.00895885 57.312 0.0654764 57.4526C0.173539 57.6563 0.425571 57.6666 5.33864 57.6666C9.19982 57.6666 10.5328 57.6318 10.6352 57.5284C10.7366 57.426 10.772 56.2841 10.772 53.1032C10.772 49.8171 10.8049 48.7954 10.9132 48.7279C10.9909 48.6794 14.5176 48.5991 18.75 48.5494C28.4414 48.4358 33.0991 48.289 34.3678 48.0574C37.311 47.5199 39.9872 46.1881 41.9722 44.2732C41.9722 44.2732 36.7463 50.2541 42.8601 43.4164C47.3057 37.426 44.9689 30.3076 42.0053 27.5452C39.0416 24.7828 36.6497 23.7381 33.4559 23.2028C32.1083 22.977 29.4859 22.7873 27.7564 22.7905L26.4455 22.793L26.742 23.0485ZM37.3316 22.8478C37.3316 22.8696 37.8316 23.1833 38.443 23.5447C42.2633 25.804 44.4149 27.8968 45.3957 30.3076C46.1783 32.2313 46.5253 34.4135 46.4114 36.6957C46.3528 37.8703 46.372 38.1766 46.5224 38.4706C46.7386 38.8928 51.1842 45.6685 53.3631 48.9243C54.1304 50.0708 55.2859 50.8633 56.6158 50.4965C58.7028 49.9207 60.5592 48.1899 61.7324 46.7729C62.7244 45.5747 62.5669 44.0713 61.704 42.7771C57.3272 36.212 52.9789 29.6276 48.6063 23.0597C48.6063 23.0597 46.7341 22.9118 42.8886 22.8694C39.8323 22.8357 37.3316 22.8259 37.3316 22.8478ZM6.88035 23.2175C6.72282 23.3915 6.035 24.2593 5.35198 25.1457C4.66895 26.0321 3.22425 27.8841 2.14146 29.2612L0.172855 31.765L15.3041 31.7662C21.1393 31.7667 27.1865 31.6448 33 32.2255C32.7922 30.9877 32.1798 29.7884 31.1654 28.3596L30.4523 27.5256C28.2208 24.9163 25.6912 23.4705 22.5699 23.0205C22.1063 22.9536 18.7124 22.9044 14.4694 22.9032L7.16692 22.9009L6.88035 23.2175ZM83.3459 24.1666C81.2834 23.7777 79.0014 24.1352 77.8252 25.8734C74.5391 30.7299 68.1202 40.1412 64.1938 45.4065C61.4811 49.0444 58.9847 51.1464 56.532 51.8576C56.1596 51.9656 55.8391 52.0679 55.8197 52.0849C55.8004 52.1021 55.8607 52.3002 55.9538 52.5253C56.4631 53.7564 58.2541 55.8086 59.6333 56.7414C61.1358 57.7577 63.1322 58.2153 64.7027 57.9033C66.5213 57.542 68.4178 56.4616 69.7091 55.0515C70.3387 54.3638 85.804 32.2265 90.3469 25.719C90.8374 25.0165 90.2621 24.0752 89.4087 24.1518C86.5414 24.409 84.7817 24.4373 83.3459 24.1666Z" fill="url(#paint0_linear_28_61)"></path><path d="M110.275 58V32.8H121.183C123.439 32.8 125.383 33.172 127.015 33.916C128.647 34.636 129.907 35.68 130.795 37.048C131.683 38.416 132.127 40.048 132.127 41.944C132.127 43.816 131.683 45.436 130.795 46.804C129.907 48.172 128.647 49.228 127.015 49.972C125.383 50.692 123.439 51.052 121.183 51.052H113.515L116.107 48.424V58H110.275ZM116.107 49.072L113.515 46.3H120.859C122.659 46.3 124.003 45.916 124.891 45.148C125.779 44.38 126.223 43.312 126.223 41.944C126.223 40.552 125.779 39.472 124.891 38.704C124.003 37.936 122.659 37.552 120.859 37.552H113.515L116.107 34.78V49.072ZM135.86 58V38.632H141.224V44.104L140.468 42.52C141.044 41.152 141.968 40.12 143.24 39.424C144.512 38.704 146.06 38.344 147.884 38.344V43.528C147.644 43.504 147.428 43.492 147.236 43.492C147.044 43.468 146.84 43.456 146.624 43.456C145.088 43.456 143.84 43.9 142.88 44.788C141.944 45.652 141.476 47.008 141.476 48.856V58H135.86ZM160.298 58.288C158.234 58.288 156.398 57.856 154.79 56.992C153.206 56.128 151.946 54.952 151.01 53.464C150.098 51.952 149.642 50.236 149.642 48.316C149.642 46.372 150.098 44.656 151.01 43.168C151.946 41.656 153.206 40.48 154.79 39.64C156.398 38.776 158.234 38.344 160.298 38.344C162.338 38.344 164.162 38.776 165.77 39.64C167.378 40.48 168.638 41.644 169.55 43.132C170.462 44.62 170.918 46.348 170.918 48.316C170.918 50.236 170.462 51.952 169.55 53.464C168.638 54.952 167.378 56.128 165.77 56.992C164.162 57.856 162.338 58.288 160.298 58.288ZM160.298 53.68C161.234 53.68 162.074 53.464 162.818 53.032C163.562 52.6 164.15 51.988 164.582 51.196C165.014 50.38 165.23 49.42 165.23 48.316C165.23 47.188 165.014 46.228 164.582 45.436C164.15 44.644 163.562 44.032 162.818 43.6C162.074 43.168 161.234 42.952 160.298 42.952C159.362 42.952 158.522 43.168 157.778 43.6C157.034 44.032 156.434 44.644 155.978 45.436C155.546 46.228 155.33 47.188 155.33 48.316C155.33 49.42 155.546 50.38 155.978 51.196C156.434 51.988 157.034 52.6 157.778 53.032C158.522 53.464 159.362 53.68 160.298 53.68ZM186.444 38.344C187.98 38.344 189.348 38.656 190.548 39.28C191.772 39.88 192.732 40.816 193.428 42.088C194.124 43.336 194.472 44.944 194.472 46.912V58H188.856V47.776C188.856 46.216 188.508 45.064 187.812 44.32C187.14 43.576 186.18 43.204 184.932 43.204C184.044 43.204 183.24 43.396 182.52 43.78C181.824 44.14 181.272 44.704 180.864 45.472C180.48 46.24 180.288 47.224 180.288 48.424V58H174.672V38.632H180.036V43.996L179.028 42.376C179.724 41.08 180.72 40.084 182.016 39.388C183.312 38.692 184.788 38.344 186.444 38.344ZM211.443 58V54.22L211.083 53.392V46.624C211.083 45.424 210.711 44.488 209.967 43.816C209.247 43.144 208.131 42.808 206.619 42.808C205.587 42.808 204.567 42.976 203.559 43.312C202.575 43.624 201.735 44.056 201.039 44.608L199.023 40.684C200.079 39.94 201.351 39.364 202.839 38.956C204.327 38.548 205.839 38.344 207.375 38.344C210.327 38.344 212.619 39.04 214.251 40.432C215.883 41.824 216.699 43.996 216.699 46.948V58H211.443ZM205.539 58.288C204.027 58.288 202.731 58.036 201.651 57.532C200.571 57.004 199.743 56.296 199.167 55.408C198.591 54.52 198.303 53.524 198.303 52.42C198.303 51.268 198.579 50.26 199.131 49.396C199.707 48.532 200.607 47.86 201.831 47.38C203.055 46.876 204.651 46.624 206.619 46.624H211.767V49.9H207.231C205.911 49.9 204.999 50.116 204.495 50.548C204.015 50.98 203.775 51.52 203.775 52.168C203.775 52.888 204.051 53.464 204.603 53.896C205.179 54.304 205.959 54.508 206.943 54.508C207.879 54.508 208.719 54.292 209.463 53.86C210.207 53.404 210.747 52.744 211.083 51.88L211.947 54.472C211.539 55.72 210.795 56.668 209.715 57.316C208.635 57.964 207.243 58.288 205.539 58.288ZM226.686 58L218.55 38.632H224.346L231.114 55.3H228.234L235.254 38.632H240.654L232.482 58H226.686ZM252.03 58.288C249.822 58.288 247.878 57.856 246.198 56.992C244.542 56.128 243.258 54.952 242.346 53.464C241.434 51.952 240.978 50.236 240.978 48.316C240.978 46.372 241.422 44.656 242.31 43.168C243.222 41.656 244.458 40.48 246.018 39.64C247.578 38.776 249.342 38.344 251.31 38.344C253.206 38.344 254.91 38.752 256.422 39.568C257.958 40.36 259.17 41.512 260.058 43.024C260.946 44.512 261.39 46.3 261.39 48.388C261.39 48.604 261.378 48.856 261.354 49.144C261.33 49.408 261.306 49.66 261.282 49.9H245.55V46.624H258.33L256.17 47.596C256.17 46.588 255.966 45.712 255.558 44.968C255.15 44.224 254.586 43.648 253.866 43.24C253.146 42.808 252.306 42.592 251.346 42.592C250.386 42.592 249.534 42.808 248.79 43.24C248.07 43.648 247.506 44.236 247.098 45.004C246.69 45.748 246.486 46.636 246.486 47.668V48.532C246.486 49.588 246.714 50.524 247.17 51.34C247.65 52.132 248.31 52.744 249.15 53.176C250.014 53.584 251.022 53.788 252.174 53.788C253.206 53.788 254.106 53.632 254.874 53.32C255.666 53.008 256.386 52.54 257.034 51.916L260.022 55.156C259.134 56.164 258.018 56.944 256.674 57.496C255.33 58.024 253.782 58.288 252.03 58.288ZM276.901 38.344C278.437 38.344 279.805 38.656 281.005 39.28C282.229 39.88 283.189 40.816 283.885 42.088C284.581 43.336 284.929 44.944 284.929 46.912V58H279.313V47.776C279.313 46.216 278.965 45.064 278.269 44.32C277.597 43.576 276.637 43.204 275.389 43.204C274.501 43.204 273.697 43.396 272.977 43.78C272.281 44.14 271.729 44.704 271.321 45.472C270.937 46.24 270.745 47.224 270.745 48.424V58H265.129V38.632H270.493V43.996L269.485 42.376C270.181 41.08 271.177 40.084 272.473 39.388C273.769 38.692 275.245 38.344 276.901 38.344ZM298.476 58.288C296.652 58.288 295.008 57.88 293.544 57.064C292.08 56.224 290.916 55.06 290.052 53.572C289.212 52.084 288.792 50.332 288.792 48.316C288.792 46.276 289.212 44.512 290.052 43.024C290.916 41.536 292.08 40.384 293.544 39.568C295.008 38.752 296.652 38.344 298.476 38.344C300.108 38.344 301.536 38.704 302.76 39.424C303.984 40.144 304.932 41.236 305.604 42.7C306.276 44.164 306.612 46.036 306.612 48.316C306.612 50.572 306.288 52.444 305.64 53.932C304.992 55.396 304.056 56.488 302.832 57.208C301.632 57.928 300.18 58.288 298.476 58.288ZM299.448 53.68C300.36 53.68 301.188 53.464 301.932 53.032C302.676 52.6 303.264 51.988 303.696 51.196C304.152 50.38 304.38 49.42 304.38 48.316C304.38 47.188 304.152 46.228 303.696 45.436C303.264 44.644 302.676 44.032 301.932 43.6C301.188 43.168 300.36 42.952 299.448 42.952C298.512 42.952 297.672 43.168 296.928 43.6C296.184 44.032 295.584 44.644 295.128 45.436C294.696 46.228 294.48 47.188 294.48 48.316C294.48 49.42 294.696 50.38 295.128 51.196C295.584 51.988 296.184 52.6 296.928 53.032C297.672 53.464 298.512 53.68 299.448 53.68ZM304.524 58V54.04L304.632 48.28L304.272 42.556V31.288H309.888V58H304.524ZM326.966 58V54.22L326.606 53.392V46.624C326.606 45.424 326.234 44.488 325.49 43.816C324.77 43.144 323.654 42.808 322.142 42.808C321.11 42.808 320.09 42.976 319.082 43.312C318.098 43.624 317.258 44.056 316.562 44.608L314.546 40.684C315.602 39.94 316.874 39.364 318.362 38.956C319.85 38.548 321.362 38.344 322.898 38.344C325.85 38.344 328.142 39.04 329.774 40.432C331.406 41.824 332.222 43.996 332.222 46.948V58H326.966ZM321.062 58.288C319.55 58.288 318.254 58.036 317.174 57.532C316.094 57.004 315.266 56.296 314.69 55.408C314.114 54.52 313.826 53.524 313.826 52.42C313.826 51.268 314.102 50.26 314.654 49.396C315.23 48.532 316.13 47.86 317.354 47.38C318.578 46.876 320.174 46.624 322.142 46.624H327.29V49.9H322.754C321.434 49.9 320.522 50.116 320.018 50.548C319.538 50.98 319.298 51.52 319.298 52.168C319.298 52.888 319.574 53.464 320.126 53.896C320.702 54.304 321.482 54.508 322.466 54.508C323.402 54.508 324.242 54.292 324.986 53.86C325.73 53.404 326.27 52.744 326.606 51.88L327.47 54.472C327.062 55.72 326.318 56.668 325.238 57.316C324.158 57.964 322.766 58.288 321.062 58.288Z" fill="white"></path><path d="M112.533 17.39H123.633V19.28H112.533V17.39ZM112.773 27.08H125.403V29H110.553V8H124.953V9.92H112.773V27.08ZM145.561 29.18C144.001 29.18 142.501 28.93 141.061 28.43C139.641 27.91 138.541 27.25 137.761 26.45L138.631 24.74C139.371 25.46 140.361 26.07 141.601 26.57C142.861 27.05 144.181 27.29 145.561 27.29C146.881 27.29 147.951 27.13 148.771 26.81C149.611 26.47 150.221 26.02 150.601 25.46C151.001 24.9 151.201 24.28 151.201 23.6C151.201 22.78 150.961 22.12 150.481 21.62C150.021 21.12 149.411 20.73 148.651 20.45C147.891 20.15 147.051 19.89 146.131 19.67C145.211 19.45 144.291 19.22 143.371 18.98C142.451 18.72 141.601 18.38 140.821 17.96C140.061 17.54 139.441 16.99 138.961 16.31C138.501 15.61 138.271 14.7 138.271 13.58C138.271 12.54 138.541 11.59 139.081 10.73C139.641 9.85 140.491 9.15 141.631 8.63C142.771 8.09 144.231 7.82 146.011 7.82C147.191 7.82 148.361 7.99 149.521 8.33C150.681 8.65 151.681 9.1 152.521 9.68L151.771 11.45C150.871 10.85 149.911 10.41 148.891 10.13C147.891 9.85 146.921 9.71 145.981 9.71C144.721 9.71 143.681 9.88 142.861 10.22C142.041 10.56 141.431 11.02 141.031 11.6C140.651 12.16 140.461 12.8 140.461 13.52C140.461 14.34 140.691 15 141.151 15.5C141.631 16 142.251 16.39 143.011 16.67C143.791 16.95 144.641 17.2 145.561 17.42C146.481 17.64 147.391 17.88 148.291 18.14C149.211 18.4 150.051 18.74 150.811 19.16C151.591 19.56 152.211 20.1 152.671 20.78C153.151 21.46 153.391 22.35 153.391 23.45C153.391 24.47 153.111 25.42 152.551 26.3C151.991 27.16 151.131 27.86 149.971 28.4C148.831 28.92 147.361 29.18 145.561 29.18ZM176.498 29.18C174.918 29.18 173.458 28.92 172.118 28.4C170.778 27.86 169.618 27.11 168.638 26.15C167.658 25.19 166.888 24.06 166.328 22.76C165.788 21.46 165.518 20.04 165.518 18.5C165.518 16.96 165.788 15.54 166.328 14.24C166.888 12.94 167.658 11.81 168.638 10.85C169.638 9.89 170.808 9.15 172.148 8.63C173.488 8.09 174.948 7.82 176.528 7.82C178.048 7.82 179.478 8.08 180.818 8.6C182.158 9.1 183.288 9.86 184.208 10.88L182.798 12.29C181.938 11.41 180.988 10.78 179.948 10.4C178.908 10 177.788 9.8 176.588 9.8C175.328 9.8 174.158 10.02 173.078 10.46C171.998 10.88 171.058 11.49 170.258 12.29C169.458 13.07 168.828 13.99 168.368 15.05C167.928 16.09 167.708 17.24 167.708 18.5C167.708 19.76 167.928 20.92 168.368 21.98C168.828 23.02 169.458 23.94 170.258 24.74C171.058 25.52 171.998 26.13 173.078 26.57C174.158 26.99 175.328 27.2 176.588 27.2C177.788 27.2 178.908 27 179.948 26.6C180.988 26.2 181.938 25.56 182.798 24.68L184.208 26.09C183.288 27.11 182.158 27.88 180.818 28.4C179.478 28.92 178.038 29.18 176.498 29.18ZM206.831 29.18C205.251 29.18 203.781 28.92 202.421 28.4C201.081 27.86 199.911 27.11 198.911 26.15C197.931 25.17 197.161 24.04 196.601 22.76C196.061 21.46 195.791 20.04 195.791 18.5C195.791 16.96 196.061 15.55 196.601 14.27C197.161 12.97 197.931 11.84 198.911 10.88C199.911 9.9 201.081 9.15 202.421 8.63C203.761 8.09 205.231 7.82 206.831 7.82C208.411 7.82 209.871 8.09 211.211 8.63C212.551 9.15 213.711 9.89 214.691 10.85C215.691 11.81 216.461 12.94 217.001 14.24C217.561 15.54 217.841 16.96 217.841 18.5C217.841 20.04 217.561 21.46 217.001 22.76C216.461 24.06 215.691 25.19 214.691 26.15C213.711 27.11 212.551 27.86 211.211 28.4C209.871 28.92 208.411 29.18 206.831 29.18ZM206.831 27.2C208.091 27.2 209.251 26.99 210.311 26.57C211.391 26.13 212.321 25.52 213.101 24.74C213.901 23.94 214.521 23.02 214.961 21.98C215.401 20.92 215.621 19.76 215.621 18.5C215.621 17.24 215.401 16.09 214.961 15.05C214.521 13.99 213.901 13.07 213.101 12.29C212.321 11.49 211.391 10.88 210.311 10.46C209.251 10.02 208.091 9.8 206.831 9.8C205.571 9.8 204.401 10.02 203.321 10.46C202.241 10.88 201.301 11.49 200.501 12.29C199.721 13.07 199.101 13.99 198.641 15.05C198.201 16.09 197.981 17.24 197.981 18.5C197.981 19.74 198.201 20.89 198.641 21.95C199.101 23.01 199.721 23.94 200.501 24.74C201.301 25.52 202.241 26.13 203.321 26.57C204.401 26.99 205.571 27.2 206.831 27.2ZM231.967 29V8H234.187V27.08H245.947V29H231.967ZM255.423 29L265.023 8H267.213L276.813 29H274.473L265.653 9.29H266.553L257.733 29H255.423ZM259.203 23.39L259.863 21.59H272.073L272.733 23.39H259.203Z" fill="#EF3636"></path><defs><linearGradient id="paint0_linear_28_61" x1="-2.22859e-06" y1="58.1929" x2="98.5601" y2="4.10882" gradientUnits="userSpaceOnUse"><stop stop-color="#EF3636"></stop><stop offset="1" stop-color="#E76B25"></stop></linearGradient></defs></svg>